# xmcd
#
# Track frame offsets:
#	150
#	23577
#	50197
#	72195
#	91770
#	115104
#	141812
#	164452
#	188097
#	211080
#
# Disc length: 3076 seconds
#
# Revision: 0
# Processed by: cddbd v1.5.2PL0 Copyright (c) Steve Scherf et al.
# Submitted via: dBpowerAMP V4.0
#
DISCID=820c020a
DTITLE=Various Artist - Loai Hoa Khong Ten
DYEAR=1900
DGENRE=Ethnic
TTITLE0=Hoang Lan - Mot Phut Suy Tu
TTITLE1=Hoang Lan - The Son - Muc Tim Mong Toi
TTITLE2=The Son - Chuyen Xe 3 Nguoi
TTITLE3=Hoang Lan - The Son - Doi Chua Trang Diem
TTITLE4=The Son - Tieng Hat Em Con Dau
TTITLE5=Hoang Lan - Mot Loai Chim Bien
TTITLE6=The Son - Nhung Tam Hon Hoang Lanh
TTITLE7=Hoang Lan - The Son - Loai Hoa Khong Ten
TTITLE8=Hoang Lan - Mot Chuyen Xe Hoa
TTITLE9=The Son - Chieu Tren Pho Buon Khong
EXTD=
EXTT0=
EXTT1=
EXTT2=
EXTT3=
EXTT4=
EXTT5=
EXTT6=
EXTT7=
EXTT8=
EXTT9=
PLAYORDER=
